<svg width="14" height="12" viewBox="0 0 14 12" fill="none" xmlns="http://www.w3.org/2000/svg">
<path fill-rule="evenodd" clip-rule="evenodd" d="M12.8639 0.145866C13.0574 0.339052 13.0574 0.652269 12.8639 0.845455L10.5016 3.20343C10.493 3.21271 10.4841 3.22161 10.4749 3.23012L8.77763 4.92432C8.77283 4.92951 8.7679 4.93461 8.76284 4.93963C8.73216 4.97007 8.7012 5.0008 8.66991 5.03185L6.03126 7.66575C6.00032 7.69681 5.9691 7.72816 5.9376 7.75979C5.93257 7.76484 5.92745 7.76977 5.92226 7.77456L4.22543 9.46834C4.21679 9.47765 4.20784 9.48658 4.1986 9.49512L1.83526 11.8542C1.64172 12.0474 1.32794 12.0474 1.13441 11.8542C0.940874 11.661 0.940874 11.3478 1.13441 11.1546L3.06041 9.23208C2.07378 8.61345 1.17459 7.86397 0.387831 7.00343L0.385982 7.00141C0.137525 6.72661 0 6.36959 0 5.99943C0 5.62927 0.137531 5.27225 0.385988 4.99746L0.390806 4.99213C0.933064 4.40961 1.82723 3.54444 2.95519 2.82212C4.08057 2.10145 5.47235 1.50156 7.00008 1.50156H7.01044C8.06844 1.52364 9.10632 1.78247 10.0483 2.25681L12.163 0.145866C12.3565 -0.0473199 12.6703 -0.0473199 12.8639 0.145866ZM8.37893 3.92313C7.97404 3.65359 7.49579 3.50572 7.00189 3.50364H6.9998C6.33655 3.50364 5.70047 3.76664 5.23148 4.23479C4.7625 4.70293 4.49902 5.33786 4.49902 5.99992L4.49903 6.002C4.50111 6.49502 4.64924 6.97241 4.91927 7.37657L3.78087 8.51292C2.79428 7.92011 1.89824 7.18757 1.121 6.33766C1.03741 6.24478 0.99115 6.12431 0.99115 5.99943C0.99115 5.87516 1.03695 5.75527 1.11976 5.66258C1.63047 5.11429 2.45965 4.31491 3.49038 3.65485C4.5242 2.99282 5.7273 2.49229 6.99492 2.49093C7.79258 2.50826 8.57683 2.68201 9.30372 3L8.37893 3.92313Z" fill="white"/>
<path d="M12.6334 4.03009C12.4294 3.84792 12.1161 3.86529 11.9336 4.06889C11.7511 4.2725 11.7685 4.58523 11.9725 4.76741C12.337 5.09302 12.6456 5.41033 12.879 5.66265C12.9621 5.75542 13.0081 5.87552 13.0081 6.00002C13.0081 6.12429 12.9623 6.24417 12.8795 6.33686C12.3688 6.88516 11.5396 7.68454 10.5089 8.3446C9.47363 9.00753 8.26868 9.50852 6.99915 9.50852H6.59811C6.32442 9.50852 6.10254 9.73 6.10254 10.0032C6.10254 10.2764 6.32442 10.4979 6.59811 10.4979H6.99915C8.52688 10.4979 9.91866 9.898 11.044 9.17733C12.172 8.45501 13.0661 7.58981 13.6084 7.00728L13.6132 7.00199C13.8617 6.7272 13.9992 6.37018 13.9992 6.00002C13.9992 5.62986 13.8617 5.27284 13.6132 4.99805L13.6095 4.99395C13.3619 4.72625 13.0296 4.384 12.6334 4.03009Z" fill="white"/>
</svg>
